name analog
datacolumns 19
datarows 37
range 0.0 0.018000000000000002
endheader
time	ground_force_vx	ground_force_vy	ground_force_vz	ground_force_px	ground_force_py	ground_force_pz	l_ground_force_vx	l_ground_force_vy	l_ground_force_vz	l_ground_force_px	l_ground_force_py	l_ground_force_pz	ground_torque_x	ground_torque_y	ground_torque_z	l_ground_torque_x	l_ground_torque_y	l_ground_torque_z
0.0	-0.0	-0.0	-0.0	-7.070655822753906	58.79728317260742	-408.2760009765625	6.896608829498291	-59.52881622314453	-371.068603515625	-0.0	-0.0	-0.0	-0.0	-0.0	-0.0	90896.296875	-1327.7340087890625	583.0653076171875
0.0005	-0.0	-0.0	-0.0	-7.295236587524414	58.383445739746094	-406.9305419921875	6.9651780128479	-59.72822952270508	-370.5398864746094	-0.0	-0.0	-0.0	-0.0	-0.0	-0.0	90811.0	-1309.080810546875	464.40728759765625
0.001	-0.0	-0.0	-0.0	-7.249149322509766	58.22840881347656	-407.582275390625	6.919441223144531	-59.41769409179688	-370.7088623046875	-0.0	-0.0	-0.0	-0.0	-0.0	-0.0	90923.9921875	-1555.4388427734375	486.4586181640625
0.0015	-0.0	-0.0	-0.0	-7.731523513793945	58.85250854492188	-408.5376281738281	7.139692306518555	-59.95062255859375	-371.57562255859375	-0.0	-0.0	-0.0	-0.0	-0.0	-0.0	90888.1015625	-1299.1204833984375	568.8093872070312
0.002	-0.0	-0.0	-0.0	-7.407942771911621	58.88511276245117	-407.2164916992188	7.228332042694092	-59.597442626953125	-370.8116149902344	-0.0	-0.0	-0.0	-0.0	-0.0	-0.0	91261.8203125	-1339.5897216796875	523.9557495117188
0.0025	-0.0	-0.0	-0.0	-7.404472351074219	58.42317199707031	-407.5696411132813	6.965466022491455	-59.85919189453125	-372.5316162109375	-0.0	-0.0	-0.0	-0.0	-0.0	-0.0	91429.1015625	-1151.2276611328125	494.0382690429688
0.003	-0.0	-0.0	-0.0	-7.334743022918701	58.22537612915039	-407.7388000488281	7.409092426300049	-59.57124710083008	-371.4066162109375	-0.0	-0.0	-0.0	-0.0	-0.0	-0.0	91194.65625	-1182.965576171875	553.7550048828125
0.0035	-0.0	-0.0	-0.0	-7.466500759124756	58.868682861328125	-407.40081787109375	7.008152008056641	-59.90148162841797	-372.788818359375	-0.0	-0.0	-0.0	-0.0	-0.0	-0.0	91299.7421875	-1333.889892578125	546.87890625
0.004	-0.0	-0.0	-0.0	-7.404472351074219	58.98103332519531	-407.2164916992188	7.13556432723999	-59.905120849609375	-372.1046142578125	-0.0	-0.0	-0.0	-0.0	-0.0	-0.0	91233.5234375	-1240.9244384765625	614.0641479492188
0.0045000000000000005	-0.0	-0.0	-0.0	-7.540385723114014	58.46954345703125	-407.1240234375	7.447791576385498	-59.70156478881836	-372.3625183105469	-0.0	-0.0	-0.0	-0.0	-0.0	-0.0	91285.640625	-1342.4815673828125	524.0853881835938
0.005	-0.0	-0.0	-0.0	-7.385422706604004	58.72223663330078	-409.393798828125	7.255148410797119	-59.90115737915039	-372.1956176757813	-0.0	-0.0	-0.0	-0.0	-0.0	-0.0	91457.046875	-1267.3173828125	612.8897705078125
0.0055	-0.0	-0.0	-0.0	-7.287355422973633	58.53975296020508	-407.77288818359375	7.493960857391357	-59.77902221679688	-372.4698791503906	-0.0	-0.0	-0.0	-0.0	-0.0	-0.0	91040.0234375	-1315.0880126953125	545.9954223632812
0.006	-0.0	-0.0	-0.0	-7.601724147796631	59.02314376831055	-408.98236083984375	7.601517677307129	-59.66346740722656	-372.1785583496094	-0.0	-0.0	-0.0	-0.0	-0.0	-0.0	91283.3203125	-1215.0458984375	642.8605346679688
0.006500000000000001	-0.0	-0.0	-0.0	-7.474958419799805	59.29519271850586	-410.8223876953125	7.554742336273193	-59.663536071777344	-370.576904296875	-0.0	-0.0	-0.0	-0.0	-0.0	-0.0	91233.4765625	-1392.5328369140625	620.954345703125
0.007	-0.0	-0.0	-0.0	-7.596591949462891	59.14048004150391	-410.8956909179688	7.78321361541748	-59.26385498046875	-370.6153259277344	-0.0	-0.0	-0.0	-0.0	-0.0	-0.0	90846.5859375	-1324.7308349609375	694.6161499023438
0.0075	-0.0	-0.0	-0.0	-7.685547351837158	59.49707412719727	-412.4208679199219	7.4283342361450195	-59.47752380371094	-371.5893249511719	-0.0	-0.0	-0.0	-0.0	-0.0	-0.0	90734.1171875	-1194.0489501953125	569.4232177734375
0.008	-0.0	-0.0	-0.0	-7.653705596923828	59.882450103759766	-414.166015625	7.162166118621826	-59.3288688659668	-369.3296508789063	-0.0	-0.0	-0.0	-0.0	-0.0	-0.0	90672.1875	-1399.1368408203125	628.62353515625
0.0085	-0.0	-0.0	-0.0	-7.737674236297607	59.70444107055664	-414.9352111816406	7.391502380371094	-58.77556228637695	-369.2178649902344	-0.0	-0.0	-0.0	-0.0	-0.0	-0.0	90130.90625	-1413.8626708984375	649.0828857421875
0.009000000000000001	-0.0	-0.0	-0.0	-8.107163429260254	60.36494064331055	-416.8243103027344	7.222116470336914	-58.55728149414063	-366.35247802734375	-0.0	-0.0	-0.0	-0.0	-0.0	-0.0	89936.328125	-1353.7081298828125	593.1366577148438
0.0095	-0.0	-0.0	-0.0	-7.957806587219238	61.1558723449707	-419.6269836425781	7.4228363037109375	-58.297645568847656	-364.3502807617188	-0.0	-0.0	-0.0	-0.0	-0.0	-0.0	89058.46875	-1254.080322265625	569.8153686523438
0.01	-0.0	-0.0	-0.0	-7.892237663269043	61.94563293457031	-421.8619995117188	7.008152008056641	-57.6685905456543	-363.1393432617188	-0.0	-0.0	-0.0	-0.0	-0.0	-0.0	88789.75	-1207.23583984375	544.2402954101562
0.0105	-0.0	-0.0	-0.0	-8.480928421020508	62.93205642700195	-425.4169616699219	6.901493549346924	-57.12064743041992	-359.369873046875	-0.0	-0.0	-0.0	-0.0	-0.0	-0.0	87819.1484375	-1012.3374633789062	546.12890625
0.011	-0.0	-0.0	-0.0	-8.879484176635742	63.56163787841797	-427.1590881347656	6.836515426635742	-56.64348220825195	-357.18212890625	-0.0	-0.0	-0.0	-0.0	-0.0	-0.0	87197.1015625	-811.0341186523438	399.8060607910156
0.0115	-0.0	-0.0	-0.0	-8.992622375488281	64.63716888427734	-432.9739990234375	6.783412456512451	-56.43756103515625	-353.1785583496094	-0.0	-0.0	-0.0	-0.0	-0.0	-0.0	86324.703125	-873.15966796875	314.812255859375
0.012	-0.0	-0.0	-0.0	-9.040517807006836	66.09817504882812	-437.4007873535156	6.404801368713379	-55.195594787597656	-348.10418701171875	-0.0	-0.0	-0.0	-0.0	-0.0	-0.0	85548.4296875	-806.135498046875	435.4960021972656
0.0125	-0.0	-0.0	-0.0	-9.628226280212402	67.69129180908203	-442.0350036621094	6.257217884063721	-54.948463439941406	-344.9617919921875	-0.0	-0.0	-0.0	-0.0	-0.0	-0.0	84335.15625	-640.5300903320312	316.79766845703125
0.013000000000000001	-0.0	-0.0	-0.0	-9.52155876159668	69.69332885742188	-446.1611633300781	5.701257228851318	-54.47714614868164	-339.2383117675781	-0.0	-0.0	-0.0	-0.0	-0.0	-0.0	83240.5	-715.266845703125	292.6796264648437
0.0135	-0.0	-0.0	-0.0	-9.157883644104004	72.2471923828125	-452.6547546386719	5.216635227203369	-53.63496398925781	-333.3291931152344	-0.0	-0.0	-0.0	-0.0	-0.0	-0.0	81895.296875	-405.8058776855469	246.92938232421875
0.014	-0.0	-0.0	-0.0	-8.838783264160156	74.49915313720703	-457.245361328125	5.387518405914307	-52.86383819580078	-329.62530517578125	-0.0	-0.0	-0.0	-0.0	-0.0	-0.0	80354.3203125	-385.8809814453125	152.44508361816406
0.0145	-0.0	-0.0	-0.0	-7.864696502685547	76.06217956542969	-460.9670715332031	4.950717926025391	-52.39177322387695	-323.78424072265625	-0.0	-0.0	-0.0	-0.0	-0.0	-0.0	79135.8828125	-125.0386962890625	157.94406127929688
0.015	-0.0	-0.0	-0.0	-7.0162882804870605	78.33116912841797	-468.3547973632813	5.210025310516357	-51.01612854003906	-319.40692138671875	-0.0	-0.0	-0.0	-0.0	-0.0	-0.0	77495.3828125	78.3607177734375	82.05794525146484
0.0155	-0.0	-0.0	-0.0	-6.0736918449401855	80.77828216552734	-474.0338745117188	4.493224143981934	-50.38400268554688	-314.4249572753906	-0.0	-0.0	-0.0	-0.0	-0.0	-0.0	76276.1328125	111.33495330810548	-23.250463485717773
0.016	-0.0	-0.0	-0.0	-5.531051635742188	82.72966003417969	-479.4566650390625	4.507488250732422	-49.37901306152344	-308.1405029296875	-0.0	-0.0	-0.0	-0.0	-0.0	-0.0	74877.984375	-1.058325171470642	-131.18299865722656
0.0165	-0.0	-0.0	-0.0	-4.687384605407715	84.57710266113281	-487.0703430175781	4.088061332702637	-48.47202682495117	-301.79052734375	-0.0	-0.0	-0.0	-0.0	-0.0	-0.0	73617.1875	340.29937744140625	-55.1319580078125
0.017	-0.0	-0.0	-0.0	-4.1357502937316895	86.78097534179688	-493.5534973144531	4.023550987243652	-48.0305290222168	-295.8261108398437	-0.0	-0.0	-0.0	-0.0	-0.0	-0.0	72045.53125	398.1954650878906	-60.622440338134766
0.0175	-0.0	-0.0	-0.0	-4.014472961425781	88.47427368164062	-499.33343505859375	3.814563751220703	-47.30007553100586	-290.7440490722656	-0.0	-0.0	-0.0	-0.0	-0.0	-0.0	70657.75	533.2653198242188	-106.34938049316406
0.018000000000000002	-0.0	-0.0	-0.0	-3.7468414306640634	90.5565185546875	-504.8226318359375	3.290095806121826	-46.14346694946289	-285.2875671386719	-0.0	-0.0	-0.0	-0.0	-0.0	-0.0	69491.4296875	793.7628173828125	-303.41375732421875
